<svg xmlns="http://www.w3.org/2000/svg" viewBox="0 0 512 512" width="512" height="512">
  <defs>
  <linearGradient id="gNavy" x1="0" y1="0" x2="0" y2="1">
    <stop offset="0" stop-color="#2a4a8a"/><stop offset="1" stop-color="#16274F"/>
  </linearGradient>
  <linearGradient id="gRoyal" x1="0" y1="0" x2="0" y2="1">
    <stop offset="0" stop-color="#3a63b0"/><stop offset="1" stop-color="#23447A"/>
  </linearGradient>
  <linearGradient id="gSky" x1="0" y1="0" x2="0" y2="1">
    <stop offset="0" stop-color="#5cc1f0"/><stop offset="1" stop-color="#2a8fc8"/>
  </linearGradient>
  <filter id="sep" x="-20%" y="-20%" width="140%" height="140%">
    <feDropShadow dx="0" dy="2" stdDeviation="2.2" flood-color="#0c1530" flood-opacity="0.35"/>
  </filter>
</defs>
  <rect width="512" height="512" rx="112" fill="#f6f2ea"/>
  <g transform="translate(76,152.5) scale(1.125)">
    <path d="M0 0 C1.83396397 0.00056489 3.66792838 0.00024604 5.50189209 -0.00088501 C10.45572749 -0.0014565 15.40946513 0.01026469 20.36327791 0.02426291 C25.54958374 0.03680437 30.73589204 0.03794345 35.92221069 0.04031372 C45.73212211 0.04651847 55.54198871 0.06291566 65.35188043 0.0830127 C76.52480762 0.10540303 87.69773699 0.116373 98.87068105 0.12640357 C121.84398795 0.14728279 144.81725513 0.18243917 167.79052734 0.22705078 C167.80851916 1.82979271 167.82136529 3.43259297 167.83203125 5.03540039 C167.83973541 5.92795029 167.84743958 6.82050018 167.8553772 7.74009705 C167.61469769 16.97001454 161.91267316 25.85172135 155.75537109 32.38720703 C147.1479368 40.5088602 137.14428524 45.28922341 125.22802734 45.35205078 C124.09365234 45.31080078 122.95927734 45.26955078 121.79052734 45.22705078 C121.88333984 46.65017578 121.88333984 46.65017578 121.97802734 48.10205078 C121.91313455 58.85262366 116.3191454 68.60330288 109.29052734 76.41455078 C102.02111369 83.34585217 91.6192868 88.42216604 81.54052734 88.28955078 C80.20248047 88.27601563 80.20248047 88.27601563 78.83740234 88.26220703 C78.16193359 88.25060547 77.48646484 88.23900391 76.79052734 88.22705078 C76.77634766 88.88189453 76.76216797 89.53673828 76.74755859 90.21142578 C76.14557582 101.73044743 71.9517028 111.97060869 63.79052734 120.22705078 C53.69941907 128.78920325 43.10730252 132.40119342 29.96975708 132.3473053 C28.81663082 132.34858694 28.81663082 132.34858694 27.64020908 132.34989446 C25.0745685 132.35153633 22.50899389 132.34604913 19.94335938 132.34057617 C18.10013328 132.340294 16.25690706 132.34045263 14.41368103 132.34101868 C9.41625196 132.34130546 4.41884692 132.3354279 -0.57857656 132.32844472 C-5.80361401 132.32219143 -11.02865202 132.32160582 -16.25369263 132.32041931 C-26.14517779 132.31731183 -36.03665189 132.30910628 -45.92813218 132.29906982 C-57.19044974 132.2878906 -68.45276783 132.28239367 -79.71508956 132.27737439 C-102.87989005 132.2669232 -126.04468074 132.24933502 -149.20947266 132.22705078 C-149.32006915 119.97511714 -145.33280292 109.08087041 -137.06884766 99.92236328 C-127.38460419 91.09261189 -116.83855208 88.01617037 -104.20947266 86.22705078 C-104.13470703 85.50001953 -104.05994141 84.77298828 -103.98291016 84.02392578 C-102.47915988 72.52465898 -98.00374502 62.04418177 -89.20947266 54.22705078 C-79.05919057 46.48160476 -69.89308799 43.57599068 -57.20947266 44.22705078 C-57.29197266 42.96892578 -57.37447266 41.71080078 -57.45947266 40.41455078 C-57.42678929 30.00489808 -52.17901888 20.50182825 -45.17431641 13.06689453 C-31.83853234 0.48374731 -17.43796043 -0.07544897 0 0 Z " transform="translate(149.20947265625,49.77294921875)" fill="url(#gNavy)" />
    <path d="M0 0 C1.15312626 0.00484369 1.15312626 0.00484369 2.329548 0.00978523 C4.89521634 0.02181082 7.46077509 0.04119369 10.02639771 0.06056213 C11.86962143 0.07071018 13.71284771 0.08040328 15.55607605 0.0896759 C20.55353047 0.11610427 25.55092529 0.14889447 30.54833364 0.1828258 C35.77335126 0.21722098 40.99840075 0.24576685 46.22344971 0.27493286 C56.11495734 0.33103582 66.00642505 0.3924002 75.89788926 0.4556542 C87.16018493 0.52741827 98.42251253 0.59331794 109.68484664 0.65872467 C132.84968243 0.79338733 156.01446838 0.93541571 179.17922974 1.08229065 C179.03622434 2.84547499 178.88830647 4.60826136 178.73831177 6.37086487 C178.61554367 7.84340225 178.61554367 7.84340225 178.49029541 9.34568787 C177.35503965 19.33310963 171.4159992 28.63897111 163.85891724 35.05104065 C154.07513026 42.2892028 144.47255021 45.25223524 132.35845947 45.20254517 C131.20533321 45.2038268 131.20533321 45.2038268 130.02891147 45.20513433 C127.4632709 45.2067762 124.89769628 45.201289 122.33206177 45.19581604 C120.48883567 45.19553386 118.64560946 45.1956925 116.80238342 45.19625854 C111.80495436 45.19654533 106.80754931 45.19066777 101.81012583 45.18368459 C96.58508838 45.17743129 91.36005038 45.17684568 86.13500977 45.17565918 C76.24352461 45.1725517 66.35205051 45.16434615 56.46057022 45.15430969 C45.19825265 45.14313047 33.93593456 45.13763354 22.67361283 45.13261425 C-0.49118766 45.12216307 -23.65597834 45.10457489 -46.82077026 45.08229065 C-46.93136676 32.83035701 -42.94410053 21.93611028 -34.68014526 12.77760315 C-24.70786407 3.68522912 -13.31032939 -0.12752686 0 0 Z " transform="translate(46.820770263671875,136.91770935058594)" fill="url(#gSky)" filter="url(#sep)"/>
    <path d="M0 0 C1.87337226 0.00084729 3.74674551 0.00036914 5.62011719 -0.00132751 C10.68143539 -0.00218492 15.74253839 0.01539945 20.80380678 0.03639436 C26.10221535 0.05520379 31.40062936 0.05691496 36.69906616 0.06047058 C46.72149923 0.06977853 56.74383361 0.09437537 66.76622331 0.12451905 C78.18097623 0.15810201 89.59573397 0.17455886 101.01052403 0.18960536 C124.48151725 0.22092604 147.95242301 0.27366218 171.42333984 0.34057617 C171.51530527 13.0172846 167.49165829 23.00568372 158.92333984 32.52807617 C150.6741964 40.39353852 139.94549742 44.50564413 128.69122314 44.46083069 C127.90784694 44.46168511 127.12447074 44.46253954 126.31735587 44.46341985 C123.69022576 44.46506806 121.06315939 44.45956404 118.43603516 44.45410156 C116.55369569 44.45381952 114.67135612 44.45397775 112.78901672 44.45454407 C107.67577069 44.45483139 102.56254804 44.44894519 97.44930744 44.44197011 C92.10681082 44.43572572 86.76431368 44.43513191 81.42181396 44.4339447 C71.30360014 44.4308346 61.1853971 44.42262551 51.06718802 44.41259521 C39.54857343 44.40142414 28.02995833 44.39592111 16.51133966 44.39089978 C-7.18466626 44.38044265 -30.8806626 44.36284939 -54.57666016 44.34057617 C-54.31055988 42.13866742 -54.03043874 39.93845093 -53.74462891 37.73901367 C-53.51296021 35.90089111 -53.51296021 35.90089111 -53.27661133 34.02563477 C-51.31945053 23.72169856 -45.31300841 14.71785115 -37.03759766 8.40307617 C-25.11965302 0.34587416 -13.96466134 -0.08868311 0 0 Z " transform="translate(99.57666015625,93.659423828125)" fill="url(#gRoyal)" filter="url(#sep)"/>
  </g>
</svg>
